<svg xmlns="http://www.w3.org/2000/svg" viewBox="0 0 212 52">
	<path d="M82 13V51H72V13H82ZM176 51V34L166 36V51H176ZM166 13V28S176 30 176 30V13S166 13 166 13ZM130 13V28S140 30 140 30V13S130 13 130 13ZM118 51V36S108 34 108 34V51S118 51 118 51ZM36 13V30L46 28V13H36ZM180 0V51H190S190 2 190 2L180 0ZM22 51H32V0L22 2V51ZM108 22C108 25 108 32 118 34S130 37 130 40 128 44 125 44 118 42 118 36C118 48 122 52 130 52S140 45 140 42 140 32 130 30 118 27 118 24 120 20 123 20 130 22 130 28C130 16 126 12 118 12S108 19 108 22ZM202 51H212S212 25 212 22 210 12 202 12 190 16 190 28C190 22 194 20 197 20S202 21 202 24V51ZM94 51H104S104 25 104 22 102 12 94 12 82 16 82 28C82 22 86 20 89 20S94 21 94 24V51ZM68 22C68 19 66 12 58 12S46 16 46 28C46 22 50 20 53 20S58 21 58 24 56 28 46 30 36 39 36 42 38 52 46 52 58 48 58 36C58 42 54 44 51 44S46 43 46 40 48 36 58 34V51H68V22ZM144 42C144 45 146 52 154 52S166 48 166 36C166 42 162 44 159 44S154 43 154 40 154 27 154 24 156 20 159 20 166 22 166 28C166 16 162 12 154 12S144 19 144 22 144 39 144 42ZM0 42C0 45 2 52 10 52S22 48 22 36C22 42 18 44 15 44S10 43 10 40 10 27 10 24 12 20 15 20 22 22 22 28C22 16 18 12 10 12S0 19 0 22 0 39 0 42Z" fill="#000000"/>
</svg>